<svg id="Layer_1" data-name="Layer 1" xmlns="http://www.w3.org/2000/svg" viewBox="0 0 1125.72 739.15"><defs><style>.cls-1{fill:#231f20;}</style></defs><title>aVertical_Black</title><path class="cls-1" d="M715.4,425.49l0-96.27a4.09,4.09,0,0,1,3.85-4.1l.08-9a5.62,5.62,0,0,0-9.94-.25L604.87,273.25,603.76,234l7-2.64.06-6.22L604,222.38l-18.64-64.3c3.27,0,5.08-4.21,1.19-6.38a2.93,2.93,0,0,1,.68-3.16c.61-.64,2.31-2.22,1.23-3.18s-2.27.28-2.91.75a1,1,0,0,1-1.31,0L566,132.23l.09-32.78a18.71,18.71,0,0,1,11.83,4.23c4.48,3.67,9.61,1.78,12.37.79,4.51-1.63,12.22-.66,16.9,4.18a14.09,14.09,0,0,0-3.24-6.73c-4.19-5.27-8.55-6.89-13.56-6.9-2.93,0-6.73.68-11.54-3.86-2.34-2.2-6.7-6.32-12.7-6.72V79.67l-3.83,0-.18,52.54L544.09,146a1,1,0,0,1-1.31,0c-.64-.48-1.93-1.63-2.91-.77s.61,2.54,1.22,3.19a3,3,0,0,1,.66,3.16c-3.92,2.14-2.13,6.39,1.14,6.39l-19.1,64.17L517,224.75V231l7,2.69-1.38,39.28L417.7,314.86a5.62,5.62,0,0,0-9.94.18v9a4.11,4.11,0,0,1,3.83,4.13l-.26,95.72,151.88,15.76Z"/><path class="cls-1" d="M95.27,489.16c-4.82,0-7.93,2.42-7.93,7.82v29c0,4.83,4.26,7.25,8.4,7.25,4.82,0,8.27-2.65,8.27-6.9V522.5H96.54V510.89h28.28v38.5h-8.74l-2.87-9.08c-4,7-12,11.27-20.81,11.27-18.62,0-29.54-12.53-29.54-27.13V497.9c0-17.24,13.91-27.13,31.84-27.13,18.51,0,30.12,10.12,30.12,25v6H103.21V497C103.21,491.58,100.1,489.16,95.27,489.16Z"/><path class="cls-1" d="M136.57,549.39V472.84h24V530.2h30v19.19Z"/><path class="cls-1" d="M240.89,549.39,238.48,538h-17l-2.87,11.38H197.22l20.46-76.55h27.47l20.34,76.55Zm-10.23-51-5.51,24.71h10.23Z"/><path class="cls-1" d="M306.49,549.39H274V472.84h32.52c21.84,0,30.58,11.73,30.58,28.74V522C337.07,539.05,328.33,549.39,306.49,549.39Zm6.44-49.88c0-6.55-2.76-8.62-8.39-8.62H298v40.34h6.55c5.63,0,8.39-2.07,8.39-8.62Z"/><path class="cls-1" d="M376.34,551.58c-20.12,0-30.58-9.31-30.58-24.83V523.3h20.81v2.87c0,5.18,3.1,7.82,8.5,7.82,6,0,7.82-2.07,7.82-5.86,0-10.12-35.75-9.66-35.75-33.22,0-13.45,10.81-24.14,29.08-24.14S405,480.31,405,494.68v4.14H384.15v-2.76c0-4.6-2.41-7.7-7.81-7.7-4.37,0-6.67,2.07-6.67,6,0,9.88,36,9.08,36,32.52C405.65,540.2,396,551.58,376.34,551.58Z"/><path class="cls-1" d="M456,491.69v57.7h-24v-57.7H413.54V472.84h60.92v18.85Z"/><path class="cls-1" d="M514.92,551.58c-18.62,0-32.06-10.81-32.06-27.36V498c0-16.66,13.44-27.24,32.06-27.24s32,10.58,32,27.24v26.21C546.88,540.77,533.43,551.58,514.92,551.58Zm7.47-54.83c0-4.37-2.52-7.59-7.47-7.59s-7.58,3.22-7.58,7.59v29c0,4.25,2.52,7.47,7.58,7.47s7.47-3.22,7.47-7.47Z"/><path class="cls-1" d="M601.58,549.39l-16.89-26.55-5.29-8.39v34.94H557.67V472.84h20.58L594.8,500l5.06,8.27v-35.4h21.61v76.55Z"/><path class="cls-1" d="M633.7,549.39V472.84h54.6v18.28H657.72v12.53h20V517h-20v12.87H688.3v19.54Z"/><path class="cls-1" d="M766.12,549.39v-27.7H749.46v27.7h-24V472.84h24V503.3h16.66V472.84h24v76.55Z"/><path class="cls-1" d="M833.14,551.58c-18.62,0-32.07-10.81-32.07-27.36V498c0-16.66,13.45-27.24,32.07-27.24s32,10.58,32,27.24v26.21C865.09,540.77,851.64,551.58,833.14,551.58Zm7.47-54.83c0-4.37-2.53-7.59-7.47-7.59s-7.59,3.22-7.59,7.59v29c0,4.25,2.53,7.47,7.59,7.47s7.47-3.22,7.47-7.47Z"/><path class="cls-1" d="M916,491.69v57.7h-24v-57.7h-18.4V472.84h60.92v18.85Z"/><path class="cls-1" d="M943.76,549.39V472.84h54.59v18.28H967.78v12.53h20V517h-20v12.87h30.57v19.54Z"/><path class="cls-1" d="M1008.84,549.39V472.84h24V530.2h30v19.19Z"/><path class="cls-1" d="M422.16,591.63v69.94h-6.91V591.63h-7.49v-6.8h21.31v6.8Z"/><path class="cls-1" d="M461.35,662.49c-6.23,0-11.41-5.3-11.41-13.14V597c0-7.71,5.18-13.13,11.41-13.13s11.4,5.42,11.4,13.13v52.31C472.75,657.19,467.57,662.49,461.35,662.49Zm4.49-66.83a4.48,4.48,0,0,0-4.49-4.72,4.41,4.41,0,0,0-4.5,4.72v55.07c0,2.66,1.61,4.73,4.5,4.73a4.42,4.42,0,0,0,4.49-4.73Z"/><path class="cls-1" d="M520.66,662.14c-4,0-5.76-1.5-5.76-7.15V632.64c0-3.11-1.62-5.07-4-5.07h-4.14v34h-7V584.83h11.64c4.49,0,10.13,2.3,10.13,12.09v17.86c0,4.61-1.15,8.07-4.72,9.68,3.57,1.61,5,5.07,5,9.56v20.86c0,2.07.23,3,1.49,3v4.26Zm-6.11-65.91c0-3.11-1.38-4.38-3.34-4.38h-4.49v29h3.91c2.31,0,3.92-2,3.92-5.07Z"/><path class="cls-1" d="M560.57,662.49c-6.22,0-11.41-5.3-11.41-13.14V597c0-7.71,5.19-13.13,11.41-13.13S572,589.33,572,597v52.31C572,657.19,566.79,662.49,560.57,662.49Zm4.49-66.83a4.48,4.48,0,0,0-4.49-4.72,4.41,4.41,0,0,0-4.49,4.72v55.07c0,2.66,1.61,4.73,4.49,4.73a4.42,4.42,0,0,0,4.49-4.73Z"/><path class="cls-1" d="M620.17,661.12,610,621.49l-2.31-11.64v51.27h-6.57V584.39H608l8.76,40.09,2.07,11.87v-52h6.57v76.73Z"/><path class="cls-1" d="M664.09,591.63v69.94h-6.91V591.63h-7.49v-6.8H671v6.8Z"/><path class="cls-1" d="M704,662.49c-6.22,0-11.41-5.3-11.41-13.14V597c0-7.71,5.19-13.13,11.41-13.13s11.41,5.42,11.41,13.13v52.31C715.36,657.19,710.17,662.49,704,662.49Zm4.49-66.83a4.47,4.47,0,0,0-4.49-4.72,4.41,4.41,0,0,0-4.49,4.72v55.07c0,2.66,1.61,4.73,4.49,4.73a4.41,4.41,0,0,0,4.49-4.73Z"/></svg>