<svg id="Layer_1" data-name="Layer 1" xmlns="http://www.w3.org/2000/svg" viewBox="0 0 352 87.29"><defs><style>.cls-1{fill:#589245;}.cls-2{fill:#7bc044;}.cls-3{fill:#777;}</style></defs><title>aArtboard 1thumb</title><path class="cls-1" d="M70,71.35c-4.93,3.39-33.6,15.33-33.6,15.33V71.82"/><path class="cls-2" d="M66,0H6.59A6.62,6.62,0,0,0,0,6.59V66a6.62,6.62,0,0,0,6.59,6.59H66A6.61,6.61,0,0,0,72.62,66V6.59A6.61,6.61,0,0,0,66,0ZM28.93,52.7s-6.07-9-7.79-11.62S19.7,34.46,23,34s6.13-2.08,6.13-5.14v-.1c0-3.43-2.4-5.19-6.29-5.19H18.39a1.14,1.14,0,0,0-1.19,1.25V51.68q0,1-.87,1H9.21V19.93c0-2.69.66-3.54,3.79-3.54H23.48c4.61,0,8.2,1.3,10.58,3.68a11.39,11.39,0,0,1,3.11,8.3v.11a11.49,11.49,0,0,1-6,10.43c-1.59,1-1,2-.36,3L38.27,52.7Zm37.2-1q0,1-.87,1H41.78V18.33c0-1.45.31-1.95,1.45-1.95h6.54V45.44H66.13Z"/><path class="cls-2" d="M66.34,84.1H65.13v-.63h3.1v.63H67v3.19h-.67Z"/><path class="cls-2" d="M68.92,83.47h.72l1.16,1.81L72,83.47h.72v3.82H72V84.55L70.8,86.36h0l-1.2-1.8v2.73h-.66Z"/><path class="cls-3" d="M96.41,26.41l1-1.31a10,10,0,0,0,6.16,2.25c2.32,0,4.14-1.28,4.14-3.26V24c0-2-2.16-2.76-4.55-3.43-2.79-.81-5.89-1.65-5.89-4.72v-.06c0-2.76,2.32-4.75,5.66-4.75A11.56,11.56,0,0,1,109,13l-.87,1.37a9.91,9.91,0,0,0-5.29-1.71c-2.36,0-3.91,1.28-3.91,3v.07c0,1.92,2.33,2.63,4.79,3.34,2.76.77,5.65,1.78,5.65,4.81v.07c0,3.06-2.62,5-5.92,5A11.78,11.78,0,0,1,96.41,26.41Z"/><path class="cls-3" d="M113.1,20.05V20A8.88,8.88,0,0,1,122,11a8.78,8.78,0,0,1,8.78,8.92V20a8.87,8.87,0,0,1-8.85,9A8.78,8.78,0,0,1,113.1,20.05Zm15.86,0V20a7.2,7.2,0,0,0-7.07-7.44,7.08,7.08,0,0,0-7,7.37V20A7.19,7.19,0,0,0,122,27.42,7.08,7.08,0,0,0,129,20.05Z"/><path class="cls-3" d="M136.49,12.91H134V11.39h2.49V9.71A6.24,6.24,0,0,1,138,5.23a4.94,4.94,0,0,1,3.61-1.34,7.32,7.32,0,0,1,2.56.4V5.84a8.15,8.15,0,0,0-2.56-.44c-2.36,0-3.47,1.42-3.47,4.35v1.64h6v1.52h-6V28.57h-1.65Z"/><path class="cls-3" d="M148.23,24.16V12.91h-2.49V11.39h2.49V5.91h1.65v5.48h6v1.52h-6V24c0,2.46,1.45,3.33,3.44,3.33a5.69,5.69,0,0,0,2.52-.61v1.55a6.18,6.18,0,0,1-2.79.61C150.39,28.87,148.23,27.42,148.23,24.16Z"/><path class="cls-3" d="M159,11.39h1.85L166,26.48l5.19-15.15h1.31l5.19,15.15,5.18-15.09h1.79l-6.3,17.31H177L171.83,14,166.68,28.7h-1.42Z"/><path class="cls-3" d="M187,23.58v-.06c0-3.57,3.06-5.59,7.51-5.59a20.58,20.58,0,0,1,5.69.74v-.74c0-3.47-2.12-5.26-5.66-5.26a11.44,11.44,0,0,0-5.38,1.39l-.61-1.45a13.72,13.72,0,0,1,6.09-1.48A7.42,7.42,0,0,1,200.06,13a6.51,6.51,0,0,1,1.75,4.85V28.57H200.2V25.71A7.84,7.84,0,0,1,193.63,29C190.44,29,187,27.15,187,23.58Zm13.23-1.44v-2a22.83,22.83,0,0,0-5.82-.77c-3.64,0-5.66,1.61-5.66,4v.06c0,2.49,2.36,3.94,5,3.94C197.23,27.42,200.23,25.27,200.23,22.14Z"/><path class="cls-3" d="M207.39,11.39H209v4.89a8.11,8.11,0,0,1,7.61-5.15V13h-.17c-4,0-7.44,3-7.44,8.58v7h-1.65Z"/><path class="cls-3" d="M218.5,20V20c0-5,3.5-9,8.14-9,4.82,0,7.88,3.91,7.88,9a4.65,4.65,0,0,1,0,.67H220.25c.3,4.28,3.36,6.77,6.73,6.77a7.72,7.72,0,0,0,5.89-2.69l1.15,1A9.05,9.05,0,0,1,226.91,29C222.4,29,218.5,25.37,218.5,20Zm14.24-.84c-.24-3.47-2.23-6.66-6.17-6.66-3.4,0-6,2.86-6.32,6.66Z"/><path class="cls-3" d="M249.76,12.91h-2.49V11.39h2.49V9.71a6.24,6.24,0,0,1,1.51-4.48,4.94,4.94,0,0,1,3.61-1.34,7.32,7.32,0,0,1,2.56.4V5.84a8.15,8.15,0,0,0-2.56-.44c-2.36,0-3.47,1.42-3.47,4.35v1.64h6v1.52h-6V28.57h-1.65Z"/><path class="cls-3" d="M259.08,20.05V20a8.88,8.88,0,0,1,8.86-9,8.78,8.78,0,0,1,8.78,8.92V20a8.88,8.88,0,0,1-8.85,9A8.78,8.78,0,0,1,259.08,20.05Zm15.86,0V20a7.2,7.2,0,0,0-7.07-7.44,7.08,7.08,0,0,0-7,7.37V20a7.2,7.2,0,0,0,7.08,7.44A7.08,7.08,0,0,0,274.94,20.05Z"/><path class="cls-3" d="M281.46,11.39h1.65v4.89a8.09,8.09,0,0,1,7.61-5.15V13h-.17c-4,0-7.44,3-7.44,8.58v7h-1.65Z"/><path class="cls-3" d="M96.41,64.67l1-1.31a10.09,10.09,0,0,0,6.16,2.25c2.32,0,4.14-1.28,4.14-3.27v-.06c0-2-2.16-2.76-4.55-3.44-2.79-.81-5.89-1.65-5.89-4.71v-.07c0-2.76,2.32-4.75,5.66-4.75A11.56,11.56,0,0,1,109,51.2l-.87,1.38a9.93,9.93,0,0,0-5.29-1.72c-2.36,0-3.91,1.28-3.91,3v.07c0,1.92,2.33,2.62,4.79,3.33,2.76.77,5.65,1.79,5.65,4.82v.06c0,3.07-2.62,5-5.92,5A11.78,11.78,0,0,1,96.41,64.67Z"/><path class="cls-3" d="M112.87,61.84v-.07c0-3.57,3.06-5.59,7.5-5.59a20.91,20.91,0,0,1,5.69.74v-.74c0-3.46-2.12-5.25-5.65-5.25A11.48,11.48,0,0,0,115,52.31l-.61-1.45a13.9,13.9,0,0,1,6.1-1.48,7.41,7.41,0,0,1,5.42,1.89,6.52,6.52,0,0,1,1.75,4.85v10.7h-1.62V64a7.8,7.8,0,0,1-6.56,3.27C116.3,67.23,112.87,65.41,112.87,61.84Zm13.23-1.45v-2a22.79,22.79,0,0,0-5.83-.78c-3.63,0-5.65,1.62-5.65,4v.07c0,2.49,2.35,3.94,5,3.94C123.1,65.68,126.1,63.52,126.1,60.39Z"/><path class="cls-3" d="M134.27,51.17h-2.49V49.65h2.49V48a6.22,6.22,0,0,1,1.51-4.48,4.91,4.91,0,0,1,3.61-1.35,7.21,7.21,0,0,1,2.55.41V44.1a7.78,7.78,0,0,0-2.55-.44c-2.36,0-3.47,1.41-3.47,4.34v1.65h6v1.52h-6V66.82h-1.65Z"/><path class="cls-3" d="M143.59,58.27V58.2c0-5,3.5-9,8.15-9,4.81,0,7.88,3.9,7.88,9a3.6,3.6,0,0,1,0,.67H145.34c.3,4.28,3.37,6.77,6.73,6.77A7.73,7.73,0,0,0,158,63l1.14,1a9,9,0,0,1-7.1,3.24C147.5,67.23,143.59,63.62,143.59,58.27Zm14.24-.84c-.23-3.47-2.22-6.67-6.16-6.67-3.4,0-6,2.86-6.33,6.67Z"/><path class="cls-3" d="M164.08,49.65h1.65v4.88a8.13,8.13,0,0,1,7.61-5.15V51.2h-.17c-4,0-7.44,3-7.44,8.59v7h-1.65Z"/><path class="cls-3" d="M187,42.24h1.64V52.85a6.74,6.74,0,0,1,6.2-3.6c4.34,0,6.87,3,6.87,7.07v10.5H200V56.62c0-3.53-2-5.86-5.46-5.86a5.89,5.89,0,0,0-6,6.13v9.93H187Z"/><path class="cls-3" d="M206.08,58.27V58.2c0-5,3.5-9,8.15-9,4.81,0,7.88,3.9,7.88,9a3.6,3.6,0,0,1,0,.67H207.83c.3,4.28,3.37,6.77,6.73,6.77a7.69,7.69,0,0,0,5.89-2.7l1.15,1a9,9,0,0,1-7.1,3.24C210,67.23,206.08,63.62,206.08,58.27Zm14.24-.84c-.23-3.47-2.22-6.67-6.16-6.67-3.4,0-6,2.86-6.33,6.67Z"/><path class="cls-3" d="M225.16,61.84v-.07c0-3.57,3.06-5.59,7.51-5.59a21,21,0,0,1,5.69.74v-.74c0-3.46-2.12-5.25-5.66-5.25a11.51,11.51,0,0,0-5.39,1.38l-.6-1.45a13.82,13.82,0,0,1,6.09-1.48,7.38,7.38,0,0,1,5.42,1.89A6.48,6.48,0,0,1,240,56.12v10.7h-1.61V64a7.82,7.82,0,0,1-6.57,3.27C228.59,67.23,225.16,65.41,225.16,61.84Zm13.23-1.45v-2a22.77,22.77,0,0,0-5.82-.78c-3.64,0-5.66,1.62-5.66,4v.07c0,2.49,2.36,3.94,5,3.94C235.39,65.68,238.39,63.52,238.39,60.39Z"/><path class="cls-3" d="M245.79,42.24h1.65V66.82h-1.65Z"/><path class="cls-3" d="M254.5,62.41V51.17H252V49.65h2.49V44.16h1.65v5.49h6v1.52h-6V62.24c0,2.46,1.45,3.34,3.44,3.34a5.72,5.72,0,0,0,2.52-.61v1.55a6.32,6.32,0,0,1-2.79.61C256.66,67.13,254.5,65.68,254.5,62.41Z"/><path class="cls-3" d="M266.72,42.24h1.65V52.85a6.71,6.71,0,0,1,6.19-3.6c4.35,0,6.87,3,6.87,7.07v10.5h-1.65V56.62c0-3.53-2-5.86-5.45-5.86a5.89,5.89,0,0,0-6,6.13v9.93h-1.65Z"/><path class="cls-3" d="M285.83,58.3v-.06a8.92,8.92,0,0,1,8.76-9,9,9,0,0,1,6.87,3.16l-1.18,1.21c-1.48-1.51-3.17-2.82-5.73-2.82a7.09,7.09,0,0,0-6.93,7.37v.07a7.22,7.22,0,0,0,7.07,7.44,7.67,7.67,0,0,0,5.75-2.86l1.15,1a8.81,8.81,0,0,1-15.76-5.53Z"/><path class="cls-3" d="M304.47,61.84v-.07c0-3.57,3.07-5.59,7.51-5.59a21,21,0,0,1,5.69.74v-.74c0-3.46-2.12-5.25-5.65-5.25a11.48,11.48,0,0,0-5.39,1.38L306,50.86a13.9,13.9,0,0,1,6.1-1.48,7.41,7.41,0,0,1,5.42,1.89,6.52,6.52,0,0,1,1.75,4.85v10.7h-1.62V64a7.82,7.82,0,0,1-6.57,3.27C307.91,67.23,304.47,65.41,304.47,61.84Zm13.24-1.45v-2a22.79,22.79,0,0,0-5.83-.78c-3.64,0-5.65,1.62-5.65,4v.07c0,2.49,2.35,3.94,5,3.94C314.71,65.68,317.71,63.52,317.71,60.39Z"/><path class="cls-3" d="M324.87,49.65h1.65v4.88a8.13,8.13,0,0,1,7.61-5.15V51.2H334c-4,0-7.44,3-7.44,8.59v7h-1.65Z"/><path class="cls-3" d="M336,58.27V58.2c0-5,3.51-9,8.15-9,4.81,0,7.88,3.9,7.88,9a3.6,3.6,0,0,1,0,.67H337.72c.31,4.28,3.37,6.77,6.74,6.77a7.71,7.71,0,0,0,5.89-2.7l1.14,1a9,9,0,0,1-7.1,3.24C339.88,67.23,336,63.62,336,58.27Zm14.24-.84C350,54,348,50.76,344.05,50.76c-3.4,0-6,2.86-6.33,6.67Z"/></svg>