<svg id="Layer_1" data-name="Layer 1" xmlns="http://www.w3.org/2000/svg" viewBox="0 0 532.8 113.35"><defs><style>.cls-1{fill:#003767;}</style></defs><title>aArtboard 2</title><path class="cls-1" d="M152.73,100.49l0-20.27V71.14c0-7.45-.45-14.48-6.76-20.37a19.16,19.16,0,0,0-14.45-5.84,28,28,0,0,0-19.71,9.14V6.14H94v4.15c.06,0,5.87-.94,5.87,5.24v84.94c0,2.67-7.95,3.94-8,4v3.08h28v-3.08s-8-.93-8-3.93V63.83a12.82,12.82,0,0,1,2.6-5.54,16.92,16.92,0,0,1,12.89-5.82,12.6,12.6,0,0,1,9.08,3.86c3.83,3.56,4.78,8.79,4.78,17.18v27c0,2.67-8,3.94-8,4v3.08h27.51v-3.08C160.65,104.41,152.73,103.49,152.73,100.49Zm142.61,0V46.41c0-.08-.14-.14-.16-.19H277.49v4.15c.06,0,5.91-.6,5.91,5.58v44.52c0,2.67-7.92,3.94-8,4v3.08h28v-3.08C303.33,104.41,295.34,103.49,295.34,100.49Zm-7-66.1a7.1,7.1,0,1,0-7.1-7.1A7.1,7.1,0,0,0,288.31,34.39ZM367.9,96.17c-.47-.58-.83-2.34-1-5v-85H349.07v4.15c.06,0,5.63-.55,5.85,5.24V46.91a53.61,53.61,0,0,0-14.79-2,29,29,0,0,0-21.59,9.13,34.52,34.52,0,0,0-10.13,24.59s-.3,30.15,26.3,30.15c7.36,0,17-4,21.62-8.18l4.11,7,15.37-4.48v-2.93C369.28,100.18,367.9,96.17,367.9,96.17Zm-13-6.68a13,13,0,0,1-.82,4.67c-1.39,3.62-7.48,7.57-15.09,7.52-10.94-.06-18.56-10.25-18.56-26.67,0-7.77,1.82-14.68,6.08-19.27a17.21,17.21,0,0,1,12.62-5c9.3,0,13.1,4.66,14.55,7.45C354.9,60.38,354.9,63,354.9,65Zm74.18,8.44c-.44-.55-.78-2.16-1-4.58L428,89.67V60c0-4.21-.24-7.43-3.29-10.48,0,0-3.09-4.57-19-4.57-6.82.26-15.46,3.25-19,8.72-2.84,4.44-1.36,7.88,1.05,10.07a7,7,0,0,0,11.52-5.29,6.86,6.86,0,0,0-1.4-4.17c.47-.9,3.9-6.64,13.36-5,8,1.41,5.52,19.21,5.52,19.21C413.29,69.57,387.86,77.68,384,88c-5,13.6,4.33,18.47,4.4,18.5a17.92,17.92,0,0,0,8.84,2.29c10,0,18.69-7.49,20.64-9.28,1.44,5.62,5.14,8.63,10.25,8.71v0l.06,0h.14v-.06l8.64-3.3V102C430.47,102,429.08,97.93,429.08,97.93Zm-12.47-5.12c0,3.37-7.11,6-11.32,7.08a12.08,12.08,0,0,1-3,.38c-4.82,0-8.47-3.29-8.47-7.67,0-8.25,9.72-12.3,16.82-15.26a47.21,47.21,0,0,0,6-2.77ZM260.24,44.42c-6.49,0-14,7.1-17.9,12.7l-1.84-10.9h-15v4.15c.06,0,5.9-.6,5.9,5.58v44.52c0,2.67-7.92,3.94-8,4v3.08h28v-3.08c-.05,0-8.05-.93-8.05-3.93V66.29a16,16,0,0,1,1.35-4.18c2.18-4.1,8.08-7.88,10-6.52a7.29,7.29,0,0,0,13.33-5.8C267.33,47,264.72,44.42,260.24,44.42ZM61.1,49.25c-16.48-10.46-20.42-15-21.75-22.8C37.64,16.43,46,8.73,56.83,8.73,60.38,8.73,75,10.08,75.35,30h4V9.32A74.47,74.47,0,0,0,54.59,4.55c-15.93,0-28.88,9.22-28.88,26.51,0,13.74,13.41,21.34,24.89,28.1,17.67,11.22,20.9,16.26,21,24.72,0,12.59-9.51,19.69-20.3,19.69a19.13,19.13,0,0,1-12.44-4.23c-1.26-1.47.64-3,.64-3a10.51,10.51,0,1,0-18.11-6.48,10.15,10.15,0,0,0,1.41,4.53c5.78,9.18,16.9,14.45,28.5,14.45C68.4,108.8,84.64,98,84.64,79.48,84.64,64.75,73.41,56.5,61.1,49.25Zm442.33,51.24,0-19.93V71.48c0-7.44-.87-14.48-7.18-20.36-4.24-4.1-8.62-6.19-14.5-6.19-5.71,0-14.24,3.21-19.66,9.48l-1.55-8.19H444.29v4.15c.06,0,5.87-.68,5.87,5.78v44.32c0,2.67-7.95,3.94-8,4v3.08h28v-3.08c-.06,0-8-.93-8-3.93V64.17a12.87,12.87,0,0,1,2.6-5.54,16.94,16.94,0,0,1,12.89-5.81,12.6,12.6,0,0,1,9.08,3.86c3.82,3.56,4.78,8.78,4.78,17.18v26.61c0,2.67-7.95,3.94-8,4v3.08h27.92v-3.08C511.36,104.41,503.43,103.49,503.43,100.49ZM214,89.63l-.28.47c-2.42,4.69-9.07,9.43-17.33,9.43-11.26,0-19.25-10.33-19.25-24a42.55,42.55,0,0,1,.34-6.36H216c0-23.64-19.32-24.23-22.67-24.23s-12,.88-18.69,7.71a32.93,32.93,0,0,0-9.39,23c0,10.37,1.74,15.7,6.62,22.81,6.16,9,16.92,10.33,22.79,10.33,11.81,0,19.84-8.53,23.12-15.82a6.62,6.62,0,0,0,.34-.92l.12-.42-3.83-1.76ZM192.65,50.17c9.16,0,12.18,9.63,12.18,12.2l0,1.51H178.32C180.76,55,185.83,50.17,192.65,50.17Z"/></svg>