<svg id="Layer_1" data-name="Layer 1" xmlns="http://www.w3.org/2000/svg" viewBox="0 0 166.09 37.67"><defs><style>.cls-1{fill:#007934;}.cls-2{fill:#1a5632;}</style></defs><title>aArtboard 3</title><path class="cls-1" d="M108.74,33.64h3.46V24.51a6.23,6.23,0,0,1,1.34-4.42,5.1,5.1,0,0,1,3.88-1.41,4.76,4.76,0,0,1,.84.07c.28.05.56.12.84.19V15.17a5,5,0,0,0-1.38-.18,5.87,5.87,0,0,0-1.69.25,7,7,0,0,0-1.55.67,6.3,6.3,0,0,0-1.29,1,5.14,5.14,0,0,0-.92,1.32h-.07v-2.8h-3.46Z"/><path class="cls-1" d="M90.9,23.05a4.69,4.69,0,0,1,.4-1.86,5.65,5.65,0,0,1,1.13-1.71,5.73,5.73,0,0,1,1.78-1.24,5.58,5.58,0,0,1,2.33-.48,5.92,5.92,0,0,1,2.28.4,4.62,4.62,0,0,1,1.63,1.11,4.82,4.82,0,0,1,1,1.67,7,7,0,0,1,.36,2.11Zm14.58,2.76V24.59a12.82,12.82,0,0,0-.48-3.48A8.75,8.75,0,0,0,103.44,18a8.08,8.08,0,0,0-2.74-2.2A8.9,8.9,0,0,0,96.61,15a9.69,9.69,0,0,0-3.76.73,8.94,8.94,0,0,0-3,2,9.37,9.37,0,0,0-2,3,10,10,0,0,0-.71,3.78,10.87,10.87,0,0,0,.65,3.78,9,9,0,0,0,1.87,3,8.31,8.31,0,0,0,3,2,9.92,9.92,0,0,0,3.89.73,9.6,9.6,0,0,0,8.06-3.72l-2.61-2a9,9,0,0,1-2.18,2,5.16,5.16,0,0,1-2.8.75,6.92,6.92,0,0,1-2.31-.39,6.14,6.14,0,0,1-2-1.07A5.41,5.41,0,0,1,91.41,28a4.6,4.6,0,0,1-.51-2.17Z"/><path class="cls-1" d="M137.86,15.45h-5V9.29h-3.45V27.92c0,.75,0,1.48.09,2.21a4.7,4.7,0,0,0,.62,2,3.87,3.87,0,0,0,1.61,1.44,7,7,0,0,0,3.09.55,11.58,11.58,0,0,0,1.51-.13,4.52,4.52,0,0,0,1.6-.48V30.34a3.45,3.45,0,0,1-1.19.42,7.07,7.07,0,0,1-1.27.12,2.55,2.55,0,0,1-1.51-.37,2.08,2.08,0,0,1-.77-1,3.94,3.94,0,0,1-.29-1.34c0-.5,0-1,0-1.51V18.45h5Z"/><polygon class="cls-1" points="151.5 15.45 156.78 28.67 162.23 15.45 166.09 15.45 158.43 33.64 154.98 33.64 147.46 15.45 151.5 15.45"/><rect class="cls-1" x="122.39" y="15.45" width="3.45" height="18.19"/><rect class="cls-1" x="141.15" y="15.45" width="3.45" height="18.19"/><polygon class="cls-1" points="65.02 9.29 75.09 33.64 79.07 33.64 89.08 9.29 84.11 9.29 77.08 27.71 69.99 9.29 65.02 9.29"/><path class="cls-1" d="M163.47,31.6h-1.63v.27h.68v1.77h.29V31.87h.66Zm2.61,0h-.44L165,33.16l-.64-1.56h-.46v2h.3V31.93h0l.68,1.71h.2l.68-1.71h0v1.71h.3Z"/><polygon class="cls-2" points="36.58 30.4 11.78 0 0 0 30.75 37.67 36.58 30.4"/><polygon class="cls-1" points="49.43 0 38.02 14.05 26.49 0 14.72 0 38.02 28.47 38.03 28.46 38.03 28.47 61.2 0 49.43 0"/></svg>