<svg id="Layer_1" data-name="Layer 1" xmlns="http://www.w3.org/2000/svg" viewBox="0 0 316.8 115.08"><defs><style>.cls-1{fill:#f08900;}</style></defs><title>aArtboard 2</title><path class="cls-1" d="M104.53,31.51l-16,44.62c-5-14-16-44.62-16-44.62H58.46l-16,44.62-16-44.62H7.1l28.32,79H49.5l16-44.63c5,14,16,44.63,16,44.63H95.56l28.33-79Z"/><polygon class="cls-1" points="297.52 31.52 297.52 2.58 277.73 2.58 277.73 31.52 248.86 31.52 248.86 2.58 229.06 2.58 229.06 31.52 217.63 31.52 217.63 48.47 229.06 48.47 229.06 110.52 248.86 110.52 248.86 48.47 277.73 48.47 277.73 110.52 297.52 110.52 297.52 48.47 309.7 48.47 309.7 31.52 297.52 31.52"/><path class="cls-1" d="M189,31.51v5.71a41.52,41.52,0,1,0,0,67.52v5.78h18.18v-79ZM166,94.1A23.13,23.13,0,1,1,189.08,71,23.11,23.11,0,0,1,166,94.1Z"/></svg>