<svg id="Layer_1" data-name="Layer 1" xmlns="http://www.w3.org/2000/svg" viewBox="0 0 504 216"><defs><style>.cls-1{fill:#231f20;}.cls-2{fill:#e31837;}</style></defs><title>aArtboard 1</title><path class="cls-1" d="M46.26,141c0,5.26-3.16,6.57-5.79,6.57s-5.79-1.31-5.79-6.57v-9.62h2v10.16c0,2.13.94,4.38,3.74,4.38s3.74-2.25,3.74-4.38V131.37h2Z"/><path class="cls-1" d="M68.22,131.37h2.71l6.37,11.07a19,19,0,0,1,1.07,2.18h.11c0-.53-.11-1.29-.11-2V131.37h2v15.86H77.68L71.34,136a18.3,18.3,0,0,1-1.07-2.19h-.11c0,.54.11,1.29.11,2v11.41h-2Z"/><path class="cls-1" d="M104.45,131.37v15.86h-2V131.37Z"/><path class="cls-1" d="M130.9,143.33a19.23,19.23,0,0,1,.53,1.94h.12a19.23,19.23,0,0,1,.53-1.94l4-12h2.12l-5.41,15.86H130.1l-5.28-15.86h2.25Z"/><path class="cls-1" d="M158.51,131.37H168V133h-7.48v5.17h7.1v1.64h-7.1v5.75h7.7v1.65h-9.75Z"/><path class="cls-1" d="M189.46,131.37h5.46c2.71,0,4.85,1.34,4.85,4.25a3.86,3.86,0,0,1-2.89,4.06l3.78,7.55h-2.45l-3.27-7.17h-3.43v7.17h-2Zm2,7h3.23c2.32,0,3-1.4,3-2.63,0-2.65-2.29-2.76-3.2-2.76h-3Z"/><path class="cls-1" d="M222.33,143.46a3.15,3.15,0,0,0,3.29,2.45,2.86,2.86,0,0,0,3.08-2.76,2.53,2.53,0,0,0-1.67-2.52l-3.83-1.78a3.64,3.64,0,0,1-2.36-3.47c0-3.09,2.69-4.34,5-4.34s4.1.78,4.86,2.89l-2,.67a2.67,2.67,0,0,0-2.85-1.91c-2,0-2.78,1.11-2.78,2.56s1.07,2,2.09,2.49L228,139a4.25,4.25,0,0,1,2.92,4.12c0,1.49-.91,4.45-5.43,4.45-3.48,0-4.77-2.18-5.1-3.36Z"/><path class="cls-1" d="M254.26,131.37v15.86h-2V131.37Z"/><path class="cls-1" d="M279.27,133.15h-4.61v-1.78h11.26v1.78h-4.61v14.08h-2Z"/><path class="cls-1" d="M306.3,131.37h9.53V133h-7.48v5.17h7.1v1.64h-7.1v5.75h7.7v1.65H306.3Zm5.08-4.18h2.4l-3.16,3.18h-1.56Z"/><path class="cls-1" d="M46.29,172.06c0,5.25-3.16,6.56-5.79,6.56s-5.79-1.31-5.79-6.56v-9.62h2v10.15c0,2.14.93,4.39,3.74,4.39s3.74-2.25,3.74-4.39V162.44h2Z"/><path class="cls-1" d="M68.11,162.44h2.72L77.2,173.5a19.82,19.82,0,0,1,1.06,2.19h.12c0-.54-.12-1.3-.12-2V162.44h2v15.85H77.57l-6.34-11.2a19,19,0,0,1-1.07-2.18h-.11c0,.53.11,1.29.11,2v11.4h-2Z"/><path class="cls-1" d="M104.21,162.44v15.85h-2V162.44Z"/><path class="cls-1" d="M130.53,174.39c.22.65.37,1.3.53,1.94h.11c.16-.64.31-1.29.54-1.94l4-11.95h2.11l-5.41,15.85h-2.65l-5.27-15.85h2.25Z"/><path class="cls-1" d="M158,162.44h9.53v1.64h-7.48v5.17h7.11v1.65h-7.11v5.74h7.71v1.65H158Z"/><path class="cls-1" d="M188.82,162.44h5.46c2.71,0,4.85,1.33,4.85,4.25a3.85,3.85,0,0,1-2.89,4.05l3.78,7.55h-2.45l-3.27-7.17h-3.43v7.17h-2.05Zm2.05,7h3.23c2.31,0,3-1.4,3-2.62,0-2.65-2.29-2.77-3.2-2.77h-3Z"/><path class="cls-1" d="M221.55,174.53a3.17,3.17,0,0,0,3.3,2.45,2.86,2.86,0,0,0,3.07-2.76,2.52,2.52,0,0,0-1.67-2.52l-3.83-1.78a3.65,3.65,0,0,1-2.36-3.47c0-3.1,2.7-4.35,5-4.35s4.09.78,4.85,2.9l-2,.67a2.67,2.67,0,0,0-2.85-1.92c-2,0-2.79,1.12-2.79,2.56s1.07,2.05,2.1,2.49l2.85,1.25a4.25,4.25,0,0,1,2.91,4.12c0,1.49-.91,4.45-5.43,4.45-3.47,0-4.76-2.18-5.1-3.36Z"/><path class="cls-1" d="M253.35,162.44v15.85h-2V162.44Z"/><path class="cls-1" d="M278.22,164.22h-4.6v-1.78h11.26v1.78h-4.61v14.07h-2Z"/><path class="cls-1" d="M309.24,171.81l-5.61-9.37h2.45l3.56,6.21a12.74,12.74,0,0,1,.65,1.34h0c.2-.45.43-.92.67-1.34l3.59-6.21h2.31l-5.61,9.37v6.48h-2.05Z"/><rect class="cls-1" x="34.81" y="153.55" width="281.77" height="1"/><path class="cls-1" d="M48.9,108.88h2.2c4.58,0,5.59-1.75,5.59-6.51V87.89L39.09,56.37c-3.57-6.42-4.76-7.24-9.25-7.24H29V46.38c3.94.09,7.79.27,11.55.27s7.79-.18,11.64-.27v2.75H50.55c-1.93,0-3.39.64-3.39,2.93,0,1.28,1.09,3.76,2,5.41L62.73,81.93,75.38,57.74c.73-1.37,2.47-4.85,2.47-6.5s-1.1-2.11-3.57-2.11H72.54V46.38c3.76.09,6.23.27,9.07.27,3,0,6.14-.18,9.07-.27v2.75H88.39c-3.76,0-4.58,1.19-7.42,6.5L64.75,86v16.4c0,5.41,2,6.51,5.59,6.51h1.83v2.74c-3.85-.09-7.79-.27-11.64-.27-4,0-8.24.18-11.63.27Z"/><path class="cls-1" d="M131.28,45.19c18.23,0,34.18,14.75,34.18,33.81,0,16.13-12.46,33.82-34.46,33.82-19.79,0-34.09-14.94-34.09-33.09A34.18,34.18,0,0,1,131.28,45.19ZM131,49c-12.83,0-24.92,7.88-24.92,29.14,0,14.84,9.71,31.15,25.47,31.15,17,0,24.74-12.46,24.74-29.32C156.29,65.26,147,49,131,49Z"/><path class="cls-1" d="M179.85,108.88h1.64c4.22,0,6-1.56,6-7.52V56.64c0-6-1.83-7.51-6-7.51h-1.64V46.38c3.2.09,7.6.27,11.72.27,6.14,0,10.54-.27,14.58-.27,16.21,0,19.15,12.74,19.15,16.95,0,12-8.43,15.67-13,17.14l12.28,20.34c5,8.25,6.51,8.8,13.93,9.26V112c-1.74,0-3.39.09-5.13.09-8.06,0-11.82-1-16.68-9L206,85.6c-2.11-3.39-3.3-3.57-10.35-3.76V99.16c0,8.71,1.55,9.72,5.22,9.72h2.66v2.74c-4-.09-7.88-.27-11.92-.27s-8.52.18-11.72.27Zm15.76-31.16a20.63,20.63,0,0,0,6.23.64c8.25,0,15-3.76,15-13.29,0-4-2.75-15.21-15.49-15.21a52.17,52.17,0,0,0-5.77.37Z"/><path class="cls-1" d="M252.79,108.88h1.65c4.21,0,6.05-1.56,6.05-7.52V56.64c0-6-1.84-7.51-6.05-7.51h-1.65V46.38c3.21.09,7.6.27,11.73.27s7.88-.18,11.91-.27v2.75h-2.66c-3.66,0-5.22,1-5.22,9.71V80.38L288.62,58c.92-1,4.4-4.68,4.4-6.51,0-1.65-1.29-2.38-3-2.38h-1.65V46.38c3.39.09,7.24.27,10.82.27s7.23-.18,10.9-.27v2.75h-1.65c-4.49,0-6.05.82-11.45,6.5L279.27,74.24l23.64,27.67c5.13,6,7.79,7,11.55,7h1.37v2.74c-2.93-.09-5.95-.27-8.88-.27s-6,.18-8.89.27c-.46-2.65-.74-4-6-10L273.31,80.1l-4.76,5v14c0,8.71,1.56,9.72,5.22,9.72h2.66v2.74c-4-.09-7.88-.27-11.91-.27s-8.52.18-11.73.27Z"/><path class="cls-2" d="M433.4,161.46c-23.67,0-44.16-14.63-44.16-46.61v-76H336.35V178.34H475.89V127.43C471.69,147.72,456.94,161.46,433.4,161.46Z"/><path class="cls-2" d="M433.4,132.9c12.7,0,16.6-11.16,16.6-22.07v-72H417.52v72C417.52,122.19,421.56,132.9,433.4,132.9Z"/></svg>